<?xml version="1.0" encoding="UTF-8" standalone="no"?>
<!-- Created with Inkscape (http://www.inkscape.org/) -->

<svg
   width="1000"
   height="500"
   viewBox="0 0 264.58333 132.29167"
   version="1.1"
   id="svg8"
   inkscape:version="1.2.1 (9c6d41e410, 2022-07-14)"
   sodipodi:docname="share_icon.svg"
   inkscape:export-filename="share_icon.jpg"
   inkscape:export-xdpi="96"
   inkscape:export-ydpi="96"
   xmlns:inkscape="http://www.inkscape.org/namespaces/inkscape"
   xmlns:sodipodi="http://sodipodi.sourceforge.net/DTD/sodipodi-0.dtd"
   xmlns="http://www.w3.org/2000/svg"
   xmlns:svg="http://www.w3.org/2000/svg"
   xmlns:rdf="http://www.w3.org/1999/02/22-rdf-syntax-ns#"
   xmlns:cc="http://creativecommons.org/ns#"
   xmlns:dc="http://purl.org/dc/elements/1.1/">
  <defs
     id="defs2" />
  <sodipodi:namedview
     id="base"
     pagecolor="#ffcc32"
     bordercolor="#666666"
     borderopacity="1"
     inkscape:pageopacity="0.81960784"
     inkscape:pageshadow="2"
     inkscape:zoom="0.65124676"
     inkscape:cx="476.01005"
     inkscape:cy="135.89319"
     inkscape:document-units="mm"
     inkscape:current-layer="layer1"
     showgrid="false"
     inkscape:window-width="1350"
     inkscape:window-height="1040"
     inkscape:window-x="370"
     inkscape:window-y="17"
     inkscape:window-maximized="0"
     inkscape:showpageshadow="2"
     inkscape:pagecheckerboard="0"
     inkscape:deskcolor="#d1d1d1" />
  <metadata
     id="metadata5">
    <rdf:RDF>
      <cc:Work
         rdf:about="">
        <dc:format>image/svg+xml</dc:format>
        <dc:type
           rdf:resource="http://purl.org/dc/dcmitype/StillImage" />
      </cc:Work>
    </rdf:RDF>
  </metadata>
  <g
     inkscape:label="Layer 1"
     inkscape:groupmode="layer"
     id="layer1"
     transform="translate(-92.783706,-63.524108)">
    <g
       id="g6260"
       transform="translate(22.836541,10.648379)"
       style="fill:#ffffff">
      <path
         id="path3998"
         d="m 137.80759,145.16168 c -4.08277,0 -7.39274,-3.10067 -7.39274,-6.92526 0,-3.82459 3.30997,-6.92527 7.39274,-6.92527 4.08277,0 7.39275,3.10068 7.39275,6.92527 0,3.82459 -3.30998,6.92526 -7.39275,6.92526 z"
         inkscape:connector-curvature="0"
         style="fill:#ffffff;fill-opacity:0;stroke:#000000;stroke-width:0.795021"
         inkscape:export-xdpi="300"
         inkscape:export-ydpi="300" />
      <path
         id="path4000"
         d="m 134.52192,123.7703 c -2.26841,0 -4.10707,-1.55033 -4.10707,-3.46263 0,-1.91231 1.83866,-3.46263 4.10707,-3.46263 2.26843,0 4.10709,1.55032 4.10709,3.46263 0,1.9123 -1.83866,3.46263 -4.10709,3.46263 z"
         inkscape:connector-curvature="0"
         style="fill:#ffffff;fill-opacity:0;stroke:#000000;stroke-width:0.795021"
         inkscape:export-xdpi="300"
         inkscape:export-ydpi="300" />
      <path
         id="path4002"
         d="m 128.60772,110.22754 c -1.99603,0 -3.61423,-1.37799 -3.61423,-3.07792 0,-1.69993 1.6182,-3.07792 3.61423,-3.07792 1.99604,0 3.61424,1.37799 3.61424,3.07792 0,1.69993 -1.6182,3.07792 -3.61424,3.07792 z"
         inkscape:connector-curvature="0"
         style="fill:#ffffff;fill-opacity:0;stroke:#000000;stroke-width:0.795021"
         inkscape:export-xdpi="300"
         inkscape:export-ydpi="300" />
      <path
         id="path4004"
         d="m 116.12219,101.91715 c -2.3591,0 -4.27137,-1.27454 -4.27137,-2.847045 0,-1.5725 1.91227,-2.847057 4.27137,-2.847057 2.35911,0 4.27137,1.274557 4.27137,2.847057 0,1.572505 -1.91226,2.847045 -4.27137,2.847045 z"
         inkscape:connector-curvature="0"
         style="fill:#ffffff;fill-opacity:0;stroke:#000000;stroke-width:0.795021"
         inkscape:export-xdpi="300"
         inkscape:export-ydpi="300" />
      <path
         id="path4006"
         d="m 134.52192,94.068528 c -2.26841,0 -4.10707,-1.412441 -4.10707,-3.154838 0,-1.742398 1.83866,-3.154844 4.10707,-3.154844 2.26843,0 4.10709,1.412446 4.10709,3.154844 0,1.742397 -1.83866,3.154838 -4.10709,3.154838 z"
         inkscape:connector-curvature="0"
         style="fill:#ffffff;fill-opacity:0;stroke:#000000;stroke-width:0.795021"
         inkscape:export-xdpi="300"
         inkscape:export-ydpi="300" />
      <path
         id="path4008"
         d="m 151.4431,133.46568 c -1.63329,0 -2.9571,-1.27456 -2.9571,-2.84706 0,-1.5725 1.32381,-2.84706 2.9571,-2.84706 1.63332,0 2.9571,1.27456 2.9571,2.84706 0,1.5725 -1.32378,2.84706 -2.9571,2.84706 z"
         inkscape:connector-curvature="0"
         style="fill:#ffffff;fill-opacity:0;stroke:#000000;stroke-width:0.795021"
         inkscape:export-xdpi="300"
         inkscape:export-ydpi="300" />
      <path
         id="path4010"
         d="m 160.31441,122.53915 c -1.90536,0 -3.44995,-1.27456 -3.44995,-2.84707 0,-1.57248 1.54459,-2.84704 3.44995,-2.84704 1.90535,0 3.44995,1.27456 3.44995,2.84704 0,1.57251 -1.5446,2.84707 -3.44995,2.84707 z"
         inkscape:connector-curvature="0"
         style="fill:#ffffff;fill-opacity:0;stroke:#000000;stroke-width:0.795021"
         inkscape:export-xdpi="300"
         inkscape:export-ydpi="300" />
      <path
         id="path4012"
         d="m 163.8465,112.22817 c -1.40626,0 -2.54639,-1.30903 -2.54639,-2.92401 0,-1.61498 1.14013,-2.92402 2.54639,-2.92402 1.40627,0 2.54639,1.30904 2.54639,2.92402 0,1.61498 -1.14012,2.92401 -2.54639,2.92401 z"
         inkscape:connector-curvature="0"
         style="fill:#ffffff;fill-opacity:0;stroke:#000000;stroke-width:0.795021"
         inkscape:export-xdpi="300"
         inkscape:export-ydpi="300" />
      <path
         id="path4014"
         d="m 175.59276,110.22754 c -1.72399,0 -3.12138,-1.37799 -3.12138,-3.07792 0,-1.69993 1.39739,-3.07792 3.12138,-3.07792 1.72399,0 3.12138,1.37799 3.12138,3.07792 0,1.69993 -1.39739,3.07792 -3.12138,3.07792 z"
         inkscape:connector-curvature="0"
         style="fill:#ffffff;fill-opacity:0;stroke:#000000;stroke-width:0.795021"
         inkscape:export-xdpi="300"
         inkscape:export-ydpi="300" />
      <path
         id="path4016"
         d="m 166.39289,98.377578 c -1.45161,0 -2.62853,-0.964616 -2.62853,-2.15453 0,-1.189913 1.17692,-2.15452 2.62853,-2.15452 1.4516,0 2.62854,0.964607 2.62854,2.15452 0,1.189914 -1.17694,2.15453 -2.62854,2.15453 z"
         inkscape:connector-curvature="0"
         style="fill:#ffffff;fill-opacity:0;stroke:#000000;stroke-width:0.795021"
         inkscape:export-xdpi="300"
         inkscape:export-ydpi="300" />
      <path
         id="path4018"
         d="m 166.39289,87.758846 c -1.45161,0 -2.62853,-1.136975 -2.62853,-2.539266 0,-1.40229 1.17692,-2.539265 2.62853,-2.539265 1.4516,0 2.62854,1.136975 2.62854,2.539265 0,1.402291 -1.17694,2.539266 -2.62854,2.539266 z"
         inkscape:connector-curvature="0"
         style="fill:#ffffff;fill-opacity:0;stroke:#000000;stroke-width:0.795021"
         inkscape:export-xdpi="300"
         inkscape:export-ydpi="300" />
      <path
         id="path4020"
         d="m 165.07862,77.601785 c -0.72579,0 -1.31426,-0.930141 -1.31426,-2.077581 0,-1.14744 0.58847,-2.07758 1.31426,-2.07758 0.72581,0 1.31427,0.93014 1.31427,2.07758 0,1.14744 -0.58846,2.077581 -1.31427,2.077581 z"
         inkscape:connector-curvature="0"
         style="fill:#ffffff;fill-opacity:0;stroke:#000000;stroke-width:0.795021"
         inkscape:export-xdpi="300"
         inkscape:export-ydpi="300" />
      <path
         id="path4022"
         d="m 135.42549,82.680315 c -1.76934,0 -3.20353,-1.136975 -3.20353,-2.539266 0,-1.402289 1.43419,-2.539264 3.20353,-2.539264 1.76933,0 3.20352,1.136975 3.20352,2.539264 0,1.402291 -1.43419,2.539266 -3.20352,2.539266 z"
         inkscape:connector-curvature="0"
         style="fill:#ffffff;fill-opacity:0;stroke:#000000;stroke-width:0.795021"
         inkscape:export-xdpi="300"
         inkscape:export-ydpi="300" />
      <path
         id="path4024"
         d="m 106.92229,98.377578 c -1.45161,0 -2.62855,-0.964616 -2.62855,-2.15453 0,-1.189913 1.17694,-2.15452 2.62855,-2.15452 1.45162,0 2.62855,0.964607 2.62855,2.15452 0,1.189914 -1.17693,2.15453 -2.62855,2.15453 z"
         inkscape:connector-curvature="0"
         style="fill:#ffffff;fill-opacity:0;stroke:#000000;stroke-width:0.795021"
         inkscape:export-xdpi="300"
         inkscape:export-ydpi="300" />
      <path
         id="path4026"
         d="m 127.70418,151.0097 c -1.49695,0 -2.71069,-0.68915 -2.71069,-1.53896 0,-0.84981 1.21374,-1.53895 2.71069,-1.53895 1.49694,0 2.71067,0.68914 2.71067,1.53895 0,0.84981 -1.21373,1.53896 -2.71067,1.53896 z"
         inkscape:connector-curvature="0"
         style="fill:#ffffff;fill-opacity:0;stroke:#000000;stroke-width:0.795021"
         inkscape:export-xdpi="300"
         inkscape:export-ydpi="300" />
      <path
         id="path4028"
         d="m 118.17573,156.08822 c -1.2249,0 -2.21782,-0.79226 -2.21782,-1.76979 0,-0.97754 0.99292,-1.76979 2.21782,-1.76979 1.22491,0 2.21783,0.79225 2.21783,1.76979 0,0.97753 -0.99292,1.76979 -2.21783,1.76979 z"
         inkscape:connector-curvature="0"
         style="fill:#ffffff;fill-opacity:0;stroke:#000000;stroke-width:0.795021"
         inkscape:export-xdpi="300"
         inkscape:export-ydpi="300" />
      <path
         id="path4030"
         d="m 106.92229,159.32001 c -1.45161,0 -2.62855,-0.72329 -2.62855,-1.6159 0,-0.89259 1.17694,-1.61589 2.62855,-1.61589 1.45162,0 2.62855,0.7233 2.62855,1.61589 0,0.89261 -1.17693,1.6159 -2.62855,1.6159 z"
         inkscape:connector-curvature="0"
         style="fill:#ffffff;fill-opacity:0;stroke:#000000;stroke-width:0.795021"
         inkscape:export-xdpi="300"
         inkscape:export-ydpi="300" />
      <path
         id="path4032"
         d="m 134.52192,123.7703 1.80713,7.54085"
         inkscape:connector-curvature="0"
         style="fill:#ffffff;fill-opacity:0;stroke:#000000;stroke-width:0.795021"
         inkscape:export-xdpi="300"
         inkscape:export-ydpi="300" />
      <path
         id="path4034"
         d="m 144.7025,135.23625 4.69624,-2.54785"
         inkscape:connector-curvature="0"
         style="fill:#ffffff;fill-opacity:0;stroke:#000000;stroke-width:0.795021"
         sodipodi:nodetypes="cc"
         inkscape:export-xdpi="300"
         inkscape:export-ydpi="300" />
      <path
         id="path4036"
         d="m 153.65342,128.7043 5.18244,-6.16515"
         inkscape:connector-curvature="0"
         style="fill:#ffffff;fill-opacity:0;stroke:#000000;stroke-width:0.795021"
         sodipodi:nodetypes="cc"
         inkscape:export-xdpi="300"
         inkscape:export-ydpi="300" />
      <path
         id="path4040"
         d="m 161.30011,116.84504 2.54639,-4.61687"
         inkscape:connector-curvature="0"
         style="fill:#ffffff;fill-opacity:0;stroke:#000000;stroke-width:0.795021"
         inkscape:export-xdpi="300"
         inkscape:export-ydpi="300" />
      <path
         id="path4042"
         d="m 166.39289,109.30416 6.07849,-2.15454"
         inkscape:connector-curvature="0"
         style="fill:#ffffff;fill-opacity:0;stroke:#000000;stroke-width:0.795021"
         inkscape:export-xdpi="300"
         inkscape:export-ydpi="300" />
      <path
         id="path4044"
         d="m 163.8465,106.38014 2.54639,-8.002562"
         inkscape:connector-curvature="0"
         style="fill:#ffffff;fill-opacity:0;stroke:#000000;stroke-width:0.795021"
         inkscape:export-xdpi="300"
         inkscape:export-ydpi="300" />
      <path
         id="path4046"
         d="M 166.39289,94.068528 V 87.758846"
         inkscape:connector-curvature="0"
         style="fill:#ffffff;fill-opacity:0;stroke:#000000;stroke-width:0.795021"
         inkscape:export-xdpi="300"
         inkscape:export-ydpi="300" />
      <path
         id="path4048"
         d="m 166.39289,82.680315 -1.31427,-5.07853"
         inkscape:connector-curvature="0"
         style="fill:#ffffff;fill-opacity:0;stroke:#000000;stroke-width:0.795021"
         inkscape:export-xdpi="300"
         inkscape:export-ydpi="300" />
      <path
         id="path4050"
         d="m 133.13469,117.07822 -2.71984,-6.85068"
         inkscape:connector-curvature="0"
         style="fill:#ffffff;fill-opacity:0;stroke:#000000;stroke-width:0.795021"
         sodipodi:nodetypes="cc"
         inkscape:export-xdpi="300"
         inkscape:export-ydpi="300" />
      <path
         id="path4052"
         d="m 130.01832,104.38262 4.5036,-10.314092"
         inkscape:connector-curvature="0"
         style="fill:#ffffff;fill-opacity:0;stroke:#000000;stroke-width:0.795021"
         sodipodi:nodetypes="cc"
         inkscape:export-xdpi="300"
         inkscape:export-ydpi="300" />
      <path
         id="path4054"
         d="m 134.52192,87.758846 0.90357,-5.078531"
         inkscape:connector-curvature="0"
         style="fill:#ffffff;fill-opacity:0;stroke:#000000;stroke-width:0.795021"
         inkscape:export-xdpi="300"
         inkscape:export-ydpi="300" />
      <path
         id="path4056"
         d="m 119.97869,100.44031 6.01051,4.17549"
         inkscape:connector-curvature="0"
         style="fill:#ffffff;fill-opacity:0;stroke:#000000;stroke-width:0.795021"
         sodipodi:nodetypes="cc"
         inkscape:export-xdpi="300"
         inkscape:export-ydpi="300" />
      <path
         id="path4058"
         d="m 109.38489,96.745279 2.79783,0.85501"
         inkscape:connector-curvature="0"
         style="fill:#ffffff;fill-opacity:0;stroke:#000000;stroke-width:0.795021"
         sodipodi:nodetypes="cc"
         inkscape:export-xdpi="300"
         inkscape:export-ydpi="300" />
      <path
         id="path4060"
         d="m 129.83402,148.32043 4.43898,-3.78058"
         inkscape:connector-curvature="0"
         style="fill:#ffffff;fill-opacity:0;stroke:#000000;stroke-width:0.795021"
         sodipodi:nodetypes="cc"
         inkscape:export-xdpi="300"
         inkscape:export-ydpi="300" />
      <path
         id="path4062"
         d="m 120.47655,153.69661 5.18075,-2.9201"
         inkscape:connector-curvature="0"
         style="fill:#ffffff;fill-opacity:0;stroke:#000000;stroke-width:0.795021"
         sodipodi:nodetypes="cc"
         inkscape:export-xdpi="300"
         inkscape:export-ydpi="300" />
      <path
         id="path4064"
         d="m 109.55084,157.70411 6.65599,-2.15999"
         inkscape:connector-curvature="0"
         style="fill:#ffffff;fill-opacity:0;stroke:#000000;stroke-width:0.795021"
         sodipodi:nodetypes="cc"
         inkscape:export-xdpi="300"
         inkscape:export-ydpi="300" />
      <path
         id="path4066"
         d="m 150.62169,87.758846 c -1.17955,0 -2.13569,-1.136975 -2.13569,-2.539266 0,-1.40229 0.95614,-2.539265 2.13569,-2.539265 1.17956,0 2.13569,1.136975 2.13569,2.539265 0,1.402291 -0.95613,2.539266 -2.13569,2.539266 z"
         inkscape:connector-curvature="0"
         style="fill:#ffffff;fill-opacity:0;stroke:#000000;stroke-width:0.795021"
         inkscape:export-xdpi="300"
         inkscape:export-ydpi="300" />
      <path
         id="path4068"
         d="M 138.62901,90.91369 148.486,85.21958"
         inkscape:connector-curvature="0"
         style="fill:#ffffff;fill-opacity:0;stroke:#000000;stroke-width:0.795021"
         inkscape:export-xdpi="300"
         inkscape:export-ydpi="300" />
      <path
         id="path4070"
         d="m 151.4431,114.22881 c -1.63329,0 -2.9571,-1.10251 -2.9571,-2.46232 0,-1.35983 1.32381,-2.46233 2.9571,-2.46233 1.63332,0 2.9571,1.1025 2.9571,2.46233 0,1.35981 -1.32378,2.46232 -2.9571,2.46232 z"
         inkscape:connector-curvature="0"
         style="fill:#ffffff;fill-opacity:0;stroke:#000000;stroke-width:0.795021"
         inkscape:export-xdpi="300"
         inkscape:export-ydpi="300" />
      <path
         id="path4072"
         d="m 158.83586,116.84504 -5.09946,-3.93762"
         inkscape:connector-curvature="0"
         style="fill:#ffffff;fill-opacity:0;stroke:#000000;stroke-width:0.795021"
         sodipodi:nodetypes="cc"
         inkscape:export-xdpi="300"
         inkscape:export-ydpi="300" />
    </g>
    <g
       id="Text"
       transform="matrix(0.26458333,0,0,0.26458333,18.369644,8.1600459)" />
    <text
       xml:space="preserve"
       style="font-style:normal;font-variant:normal;font-weight:normal;font-stretch:normal;font-size:22.5778px;font-family:'Century Gothic';-inkscape-font-specification:'Century Gothic, Normal';font-variant-ligatures:normal;font-variant-caps:normal;font-variant-numeric:normal;font-variant-east-asian:normal;fill:#333333;fill-opacity:1;stroke-width:0.352999"
       x="209.06277"
       y="124.55019"
       id="text6219"><tspan
         sodipodi:role="line"
         id="tspan6217"
         style="font-style:normal;font-variant:normal;font-weight:normal;font-stretch:normal;font-size:22.5778px;font-family:'Century Gothic';-inkscape-font-specification:'Century Gothic, Normal';font-variant-ligatures:normal;font-variant-caps:normal;font-variant-numeric:normal;font-variant-east-asian:normal;fill:#333333;fill-opacity:1;stroke-width:0.353"
         x="209.06277"
         y="124.55019">Humphries</tspan><tspan
         sodipodi:role="line"
         style="font-style:normal;font-variant:normal;font-weight:normal;font-stretch:normal;font-size:22.5778px;font-family:'Century Gothic';-inkscape-font-specification:'Century Gothic, Normal';font-variant-ligatures:normal;font-variant-caps:normal;font-variant-numeric:normal;font-variant-east-asian:normal;fill:#333333;fill-opacity:1;stroke-width:0.353"
         x="209.06277"
         y="152.77245"
         id="tspan6221">Lab</tspan></text>
    <path
       style="fill:#ffffff;fill-opacity:1;stroke-width:0.542036"
       d="m 157.42861,154.27917 c -1.09636,-0.57837 -2.15142,-1.56282 -2.72132,-2.5392 -2.37645,-4.07142 0.95067,-9.11064 6.01525,-9.11064 5.41835,0 8.58802,6.11879 5.18023,10.00005 -2.37905,2.70959 -5.36375,3.29066 -8.47416,1.64979 z"
       id="path6932" />
    <path
       style="fill:#ffffff;fill-opacity:1;stroke-width:0.542036"
       d="m 172.7305,142.80345 c -1.25203,-1.25203 -0.28533,-3.83057 1.43609,-3.83057 1.0435,0 2.39447,1.23818 2.39447,2.19457 0,1.89949 -2.49954,2.96702 -3.83056,1.636 z"
       id="path6934" />
    <path
       style="fill:#ffffff;fill-opacity:1;stroke-width:2.04864"
       d=""
       id="path6936"
       transform="matrix(0.26458333,0,0,0.26458333,92.783706,63.524108)" />
    <path
       style="fill:#ffffff;fill-opacity:1;stroke-width:0.542036"
       d="m 185.23792,121.26856 c -1.51209,-2.30773 1.28621,-4.7927 2.86261,-2.54207 0.85238,1.21694 0.81829,1.79455 -0.16385,2.7767 -1.09117,1.09116 -1.87471,1.02305 -2.69876,-0.23463 z"
       id="path6938" />
    <path
       style="fill:#333333;fill-opacity:1;stroke-width:0.542036"
       d="m 196.96506,119.65192 c -1.84382,-1.29145 -0.69939,-4.24282 1.64521,-4.24282 1.13778,0 2.32711,1.29202 2.32711,2.52804 0,0.93134 -1.41588,2.34723 -2.34723,2.34723 -0.39718,0 -1.12847,-0.2846 -1.62509,-0.63245 z"
       id="path6940" />
    <path
       style="fill:#333333;fill-opacity:1;stroke-width:0.542036"
       d="m 187.72056,107.6756 c -0.72892,-0.80546 -0.72552,-0.84968 0.1314,-1.7066 0.72885,-0.72885 1.07215,-0.81204 2.00179,-0.48511 1.34772,0.47397 1.70088,1.74489 0.69022,2.4839 -1.03778,0.75884 -1.95846,0.66356 -2.82341,-0.29219 z"
       id="path7011" />
    <path
       style="fill:#333333;fill-opacity:1;stroke-width:2.04864"
       d=""
       id="path7013"
       transform="matrix(0.26458333,0,0,0.26458333,92.783706,63.524108)" />
    <path
       style="fill:#333333;fill-opacity:1;stroke-width:0.542036"
       d="m 149.95024,119.7989 c -2.50831,-1.42238 -1.4735,-4.3898 1.53082,-4.3898 1.14131,0 3.14131,1.55199 3.14131,2.43764 0,0.80127 -1.97519,2.43788 -2.927,2.42528 -0.51292,-0.007 -1.29823,-0.2197 -1.74513,-0.47312 z"
       id="path7015" />
    <path
       style="fill:#333333;fill-opacity:1;stroke-width:0.542036"
       d="m 148.73143,160.5053 c -0.43917,-0.71059 0.20967,-1.21902 1.54749,-1.2126 1.54628,0.007 2.52383,0.54132 2.13703,1.16718 -0.34728,0.56191 -3.34249,0.59884 -3.68452,0.0454 z"
       id="path7017" />
    <path
       style="fill:#333333;fill-opacity:1;stroke-width:0.542036"
       d="m 128.39391,168.84159 c -0.6826,-0.52079 -0.70669,-0.65651 -0.17922,-1.00945 0.89257,-0.59725 2.67108,-0.50858 3.22666,0.16086 0.38511,0.46402 0.31867,0.66862 -0.32981,1.01568 -1.09996,0.58868 -1.78202,0.54674 -2.71763,-0.16709 z"
       id="path7019" />
    <path
       style="fill:#333333;fill-opacity:1;stroke-width:0.542036"
       d="m 137.96522,111.83337 c -2.21379,-0.33739 -3.10118,-2.19818 -1.66717,-3.49594 1.63291,-1.47777 6.13616,-0.4918 6.13616,1.34349 0,1.36034 -2.32349,2.47943 -4.46899,2.15245 z"
       id="path7021" />
    <path
       style="fill:#333333;fill-opacity:1;stroke-width:0.542036"
       d="m 181.03005,131.65998 c -0.4469,-0.44689 -0.81254,-1.0735 -0.81254,-1.39246 0,-0.66987 1.88453,-2.26398 2.67644,-2.26398 1.14375,0 2.63579,0.99651 2.86612,1.91424 0.55487,2.21078 -2.96498,3.50725 -4.73002,1.7422 z"
       id="path7023" />
    <path
       style="fill:#333333;fill-opacity:1;stroke-width:0.542036"
       d="m 156.55216,92.21905 c -0.81614,-0.475357 -0.94188,-2.011676 -0.22345,-2.730107 0.59876,-0.598757 2.54078,-0.634859 3.60191,-0.06696 1.02258,0.547268 1.02258,2.268049 0,2.815316 -0.98767,0.528584 -2.45319,0.520668 -3.37846,-0.01826 z"
       id="path7025" />
    <path
       style="fill:#333333;fill-opacity:1;stroke-width:2.04864"
       d=""
       id="path7027"
       transform="matrix(0.26458333,0,0,0.26458333,92.783706,63.524108)" />
    <path
       style="fill:#ffffff;fill-opacity:1;stroke-width:0.271018"
       d="m 187.35987,87.163634 c -0.35221,-0.773029 -0.28562,-1.613206 0.17053,-2.15165 l 0.40628,-0.47956 0.40627,0.47956 c 0.48567,0.573288 0.52711,1.59359 0.09,2.217577 -0.41582,0.593669 -0.78287,0.571119 -1.07313,-0.06593 z"
       id="path7029" />
    <path
       style="fill:#ffffff;fill-opacity:1;stroke-width:0.271018"
       d="m 140.40285,166.1581 c -1.60754,-0.63085 -1.15876,-2.39339 0.60941,-2.39339 1.36303,0 2.12344,1.20345 1.25627,1.98823 -0.41231,0.37314 -1.40046,0.58773 -1.86568,0.40516 z"
       id="path7033" />
    <path
       style="fill:#ffffff;fill-opacity:1;stroke-width:0.271018"
       d="m 156.25488,133.76641 c -2.85919,-0.85635 -3.32041,-3.9794 -0.77914,-5.27586 2.35984,-1.2039 5.44233,0.18855 5.44233,2.45846 0,1.93483 -2.52214,3.45866 -4.66319,2.8174 z"
       id="path7035" />
    <path
       style="fill:#ffffff;fill-opacity:1;stroke-width:0.271018"
       d="m 155.48014,103.79766 c -2.06623,-1.01842 -2.22263,-3.20073 -0.30657,-4.277619 1.74274,-0.979471 3.66066,-0.768328 4.97689,0.547909 1.28607,1.28607 0.9413,2.74394 -0.86707,3.6665 -0.97496,0.49739 -2.85885,0.5287 -3.80325,0.0632 z"
       id="path7037" />
    <path
       style="fill:#ffffff;fill-opacity:1;stroke-width:0.271018"
       d="m 172.74799,97.706595 c -0.76807,-0.323072 -1.11137,-2.262044 -0.54394,-3.072167 0.77768,-1.110292 2.02555,-0.987898 2.6161,0.25659 0.43121,0.908693 0.40221,1.340811 -0.14458,2.155013 -0.45461,0.676934 -1.24485,0.947743 -1.92758,0.660564 z"
       id="path7039" />
    <path
       style="fill:#ffffff;fill-opacity:1;stroke-width:0.271018"
       d="m 173.37445,124.23205 c -1.34175,-0.40342 -1.88089,-1.86674 -1.06835,-2.89971 1.01375,-1.28878 3.51756,-1.04517 4.21136,0.40975 0.29782,0.62454 0.30193,0.76094 0.037,1.22779 -0.63803,1.12418 -1.93146,1.63756 -3.17998,1.26217 z"
       id="path7041" />
    <path
       style="fill:#ffffff;fill-opacity:1;stroke-width:0.271018"
       d="m 188.01124,97.477828 c -1.33719,-1.083164 -1.07887,-2.831158 0.51601,-3.49178 0.85417,-0.353806 1.96049,0.03854 2.47143,0.87647 0.56398,0.924922 0.48913,1.496163 -0.29935,2.284653 -0.5492,0.549198 -0.85086,0.689737 -1.47274,0.686144 -0.4323,-0.0024 -0.97586,-0.161486 -1.21535,-0.355487 z"
       id="path7043" />
    <path
       style="fill:#ffffff;fill-opacity:1;stroke-width:0.271018"
       d="m 128.90094,108.31459 c -0.64275,-0.28221 -1.29566,-1.02136 -1.29566,-1.46681 0,-0.51075 1.02533,-1.4505 1.726,-1.58195 0.87421,-0.164 2.0769,0.35078 2.38152,1.01934 0.62961,1.38185 -1.22996,2.72397 -2.81186,2.02942 z"
       id="path7045" />
  </g>
</svg>
