<?xml version="1.0" standalone="no"?>
<!DOCTYPE svg PUBLIC "-//W3C//DTD SVG 20010904//EN"
 "http://www.w3.org/TR/2001/REC-SVG-20010904/DTD/svg10.dtd">
<svg version="1.0" xmlns="http://www.w3.org/2000/svg"
 width="1128.000000pt" height="1128.000000pt" viewBox="0 0 1128.000000 1128.000000"
 preserveAspectRatio="xMidYMid meet">
<metadata>
Created by potrace 1.14, written by Peter Selinger 2001-2017
</metadata>
<g transform="translate(0.000000,1128.000000) scale(0.100000,-0.100000)"
fill="#000000" stroke="none">
<path d="M8454 11256 c-61 -27 -129 -136 -140 -225 -24 -180 32 -326 150 -396
9 -5 18 -19 20 -30 3 -11 9 -40 15 -65 7 -25 13 -52 15 -60 2 -8 9 -33 14 -55
6 -22 13 -51 16 -65 3 -14 7 -34 10 -45 14 -51 47 -193 52 -221 6 -29 4 -31
-37 -43 -113 -34 -217 -143 -249 -262 -11 -41 -14 -122 -6 -176 7 -44 49 -131
86 -175 26 -32 120 -102 139 -104 3 0 25 -6 48 -12 l41 -12 0 -360 c0 -198 -3
-362 -7 -365 -4 -2 -22 -7 -40 -10 -143 -25 -272 -172 -272 -311 0 -144 87
-259 242 -315 l57 -21 -20 -72 c-11 -39 -22 -78 -24 -86 -2 -8 -15 -51 -28
-95 -14 -44 -39 -127 -56 -185 -17 -58 -42 -143 -57 -190 -14 -47 -26 -87 -26
-90 1 -3 -4 -16 -9 -30 -5 -14 -11 -32 -13 -40 -2 -8 -13 -46 -24 -85 -12 -38
-21 -71 -21 -71 0 -1 -17 -5 -37 -9 -79 -15 -180 -97 -227 -185 -41 -79 -56
-141 -57 -235 0 -56 27 -193 40 -205 3 -3 14 -21 24 -40 29 -57 83 -110 151
-145 l64 -33 -57 -110 c-31 -60 -90 -174 -131 -254 l-74 -145 -91 -1 c-49 0
-102 -5 -117 -11 -21 -8 -29 -7 -35 2 -7 11 -147 131 -203 174 -47 36 -155
129 -158 135 -2 5 -10 8 -17 8 -8 0 -18 7 -22 15 -5 7 -34 34 -65 58 -93 72
-91 70 -72 114 32 76 23 198 -21 284 -28 53 -115 133 -175 161 -131 59 -258
59 -388 -2 -235 -110 -287 -404 -103 -578 102 -96 246 -136 386 -107 71 15
132 44 188 87 l37 30 43 -34 c23 -18 53 -43 67 -54 14 -12 84 -70 155 -129 72
-59 152 -125 179 -148 27 -23 56 -47 65 -53 13 -10 10 -14 -15 -27 -71 -37
-172 -174 -189 -257 -16 -75 -1 -203 27 -237 6 -7 7 -13 4 -13 -12 0 52 -87
92 -125 20 -20 49 -43 65 -53 34 -20 34 -28 -3 -72 -31 -38 -129 -160 -160
-200 -87 -113 -105 -136 -110 -140 -3 -3 -30 -36 -60 -75 -30 -38 -58 -74 -62
-80 -23 -29 -142 -180 -143 -183 -2 -1 -24 11 -51 27 -147 91 -326 84 -459
-17 -93 -71 -160 -191 -168 -305 -7 -87 19 -192 65 -259 l19 -27 -38 -24 c-21
-13 -65 -39 -98 -58 -33 -19 -68 -38 -77 -44 -10 -5 -68 -39 -130 -74 -62 -36
-122 -71 -134 -78 -19 -12 -22 -10 -35 14 -8 16 -16 30 -19 33 -3 3 -14 18
-23 33 -33 52 -124 149 -189 204 -102 84 -279 166 -408 188 -19 3 -48 8 -65
11 -33 6 -221 8 -244 2 -7 -1 -15 4 -17 12 -1 8 -5 24 -8 35 -2 11 -16 72 -31
135 -14 63 -28 123 -31 133 -5 20 -8 36 -19 92 -5 22 -9 42 -10 45 -1 3 -5 21
-9 40 -4 19 -18 80 -31 135 -25 103 -34 145 -40 180 -2 11 -7 35 -11 53 -6 28
-4 32 15 32 30 0 27 -1 70 15 22 7 42 11 45 8 3 -4 6 0 6 7 0 7 3 10 6 7 14
-13 131 60 189 118 79 79 115 143 142 255 7 28 6 125 -1 170 -23 142 -149 296
-296 363 -91 42 -255 63 -350 44 -34 -7 -36 -6 -52 36 -10 23 -18 49 -18 58 0
8 -4 19 -8 25 -5 5 -17 32 -26 59 -10 28 -21 59 -26 70 -5 11 -27 72 -51 135
-23 63 -47 126 -52 140 -6 14 -11 27 -11 30 -5 25 -102 276 -108 278 -5 2 7
14 25 26 104 71 164 160 194 286 16 68 -3 196 -38 265 -31 60 -85 121 -145
166 -30 22 -54 44 -54 49 0 6 9 29 19 53 10 23 42 101 71 172 29 72 63 155 76
185 34 81 154 375 251 615 47 116 88 213 91 216 4 4 30 10 57 13 151 17 310
111 388 228 30 46 58 110 63 143 1 6 3 15 4 20 1 6 3 16 4 24 0 8 10 19 21 25
21 11 77 45 135 81 19 13 154 96 300 185 146 89 288 176 315 194 28 17 59 36
70 43 11 6 75 46 142 87 68 41 124 72 126 68 3 -4 12 -32 22 -61 20 -62 18
-58 76 -124 60 -68 124 -96 214 -93 83 3 129 22 186 80 70 71 109 166 113 274
6 165 -68 310 -191 372 -72 37 -169 35 -242 -5 -91 -50 -151 -138 -175 -259
l-12 -60 -150 -93 c-82 -52 -158 -98 -169 -104 -11 -5 -50 -29 -87 -52 -37
-23 -104 -65 -150 -93 -46 -28 -157 -97 -246 -153 -90 -55 -167 -101 -172
-101 -5 0 -10 -3 -12 -7 -4 -10 -107 -73 -119 -73 -5 0 -9 6 -9 13 0 29 -62
135 -105 180 -24 26 -69 63 -99 82 -61 39 -188 85 -240 87 -20 1 -33 6 -31 12
2 6 6 29 9 51 3 22 8 51 10 65 8 41 18 103 21 130 2 14 5 39 9 55 3 17 8 44
10 60 3 17 8 39 10 50 2 11 7 43 10 70 4 28 10 56 14 62 4 5 32 16 62 23 311
73 435 384 240 602 -50 56 -168 128 -211 128 -10 0 -20 4 -23 9 -6 9 -196 7
-235 -2 -54 -14 -153 -68 -196 -108 -170 -157 -159 -387 27 -545 44 -38 181
-93 211 -86 17 5 18 -33 3 -121 -9 -50 -18 -107 -21 -125 -2 -18 -6 -45 -9
-60 -3 -15 -8 -43 -11 -62 -3 -19 -10 -60 -15 -90 -6 -30 -11 -67 -12 -82 -2
-24 -8 -28 -43 -33 -22 -4 -47 -7 -55 -9 -91 -14 -218 -83 -290 -157 -104
-107 -145 -240 -117 -382 23 -112 137 -243 264 -304 44 -21 86 -40 94 -41 8
-2 23 -6 34 -9 11 -2 31 -6 45 -7 28 -3 29 -14 3 -73 -9 -21 -17 -40 -18 -43
-1 -3 -7 -16 -12 -30 -6 -14 -28 -65 -47 -115 -20 -49 -41 -99 -46 -110 -5
-11 -44 -105 -85 -210 -42 -104 -83 -206 -92 -225 -8 -19 -19 -44 -24 -55 -5
-11 -17 -42 -28 -70 -11 -27 -27 -68 -37 -90 -10 -22 -19 -44 -20 -50 -2 -5
-16 -41 -32 -80 -25 -61 -32 -70 -53 -68 -96 9 -192 8 -241 -3 -58 -14 -150
-53 -156 -67 -4 -7 -37 11 -67 35 -13 10 -75 57 -107 80 -12 9 -75 55 -138
103 -63 47 -126 93 -139 103 -13 9 -79 58 -146 107 l-121 90 18 54 c96 278
-188 537 -576 526 -150 -4 -309 -59 -404 -140 l-42 -37 -139 47 c-134 44 -140
47 -139 73 2 188 -172 344 -377 337 -82 -3 -119 -11 -177 -41 -64 -32 -127
-96 -159 -159 -35 -73 -34 -189 3 -261 92 -176 321 -246 512 -156 56 26 104
67 154 131 l18 24 115 -38 c63 -21 117 -39 120 -41 3 -2 -3 -29 -13 -60 -40
-119 -2 -252 101 -351 218 -211 643 -222 881 -23 27 22 50 37 52 33 2 -7 78
-64 197 -151 13 -9 30 -23 37 -29 7 -7 16 -13 19 -13 4 0 21 -11 39 -25 46
-37 48 -39 86 -65 19 -14 39 -31 43 -37 4 -7 14 -13 22 -13 7 0 15 -3 17 -8 1
-4 49 -41 105 -82 56 -41 102 -80 103 -86 0 -6 -7 -17 -16 -24 -27 -23 -67
-100 -84 -164 -17 -61 -20 -169 -5 -218 43 -145 171 -270 324 -319 74 -23 225
-29 274 -10 37 14 57 14 62 -1 2 -7 43 -116 90 -243 48 -126 88 -234 89 -240
2 -5 6 -17 9 -25 4 -8 31 -81 60 -163 l54 -147 -56 -32 c-118 -67 -216 -196
-245 -323 -16 -66 -11 -185 9 -240 67 -185 245 -329 433 -352 52 -6 55 -7 59
-28 2 -8 4 -21 6 -27 2 -7 7 -29 11 -48 4 -19 16 -71 26 -115 11 -44 21 -91
24 -105 2 -14 12 -56 21 -95 10 -38 19 -79 21 -90 1 -11 6 -31 9 -45 4 -14 8
-34 10 -45 6 -31 14 -65 19 -83 3 -9 8 -29 11 -44 6 -35 12 -59 29 -131 l14
-58 -27 -11 c-14 -5 -30 -11 -36 -12 -60 -15 -203 -92 -280 -151 -96 -74 -161
-146 -239 -267 -32 -48 -102 -225 -110 -274 -3 -21 -9 -59 -13 -84 -13 -81 -6
-261 12 -335 58 -237 199 -445 385 -570 l48 -33 -81 -73 c-44 -41 -93 -85
-107 -99 -15 -14 -64 -59 -110 -100 -46 -41 -102 -92 -124 -114 -58 -55 -84
-70 -99 -59 -36 26 -133 45 -227 43 -171 -2 -308 -74 -355 -186 -23 -56 -7
-139 37 -188 14 -16 15 -21 3 -32 -7 -8 -16 -14 -19 -14 -8 0 -110 -64 -117
-73 -3 -5 -10 -9 -15 -9 -5 -1 -18 -7 -29 -14 -85 -54 -308 -184 -316 -184 -5
0 -9 -4 -9 -8 0 -5 -11 -14 -25 -20 -32 -15 -35 -15 -35 -2 0 16 -65 70 -115
97 -29 15 -70 25 -118 29 -232 20 -401 -156 -341 -355 7 -25 12 -46 11 -47 -1
0 -49 -17 -107 -37 -58 -19 -217 -74 -354 -121 -249 -85 -276 -91 -276 -52 0
22 -75 85 -131 110 -168 77 -379 54 -503 -54 -96 -84 -95 -234 1 -320 26 -23
126 -82 138 -80 3 0 6 0 8 -1 50 -15 208 -18 267 -6 93 20 230 117 230 164 0
7 5 13 11 13 5 0 8 4 5 8 -11 18 16 31 174 85 91 31 224 77 295 102 72 26 146
51 165 56 19 6 44 14 55 19 75 33 92 33 162 -2 61 -30 76 -33 158 -33 78 0 97
4 146 28 105 52 169 145 169 245 l0 47 166 100 c91 55 183 109 203 120 20 11
38 22 41 25 12 12 112 70 121 70 5 0 9 5 9 10 0 6 6 10 13 10 6 0 25 11 41 23
l29 24 51 -20 c71 -28 235 -31 314 -7 199 60 284 195 207 326 l-27 46 25 22
c13 11 64 58 113 103 49 45 98 90 110 100 12 10 63 56 114 103 118 108 112
103 132 118 12 10 22 10 37 3 12 -6 29 -15 39 -20 10 -5 58 -19 108 -32 94
-24 284 -32 389 -16 103 16 296 93 355 142 8 7 20 14 27 16 26 9 143 118 189
177 27 35 54 69 60 76 21 23 92 171 114 238 30 94 47 208 44 308 -2 105 -9
150 -39 253 -13 45 -22 85 -19 88 2 4 66 42 141 85 76 43 146 83 155 89 9 5
29 17 45 26 37 21 89 51 134 78 l37 22 38 -22 c22 -11 44 -24 49 -28 23 -16
89 -32 142 -36 188 -12 353 100 418 285 35 98 22 246 -30 338 l-25 44 32 42
c18 22 35 43 38 46 3 3 18 23 35 45 16 22 32 42 35 45 3 3 21 25 40 50 19 25
39 50 45 56 5 7 93 118 194 248 l184 235 36 -5 c62 -10 154 -11 196 -1 22 5
48 10 59 13 56 11 152 68 203 121 153 156 160 386 16 539 -48 52 -116 104
-136 104 -8 0 -20 7 -27 15 -13 15 -7 28 140 310 32 61 72 138 90 173 22 42
38 62 51 62 39 0 131 51 179 99 57 57 107 152 116 222 4 24 10 51 14 59 5 8
61 35 127 59 65 24 129 48 143 54 14 6 27 11 30 11 3 1 19 6 35 13 45 17 69
26 75 28 3 1 12 5 20 8 43 18 203 77 210 77 4 0 10 -15 13 -33 12 -78 83 -192
151 -244 110 -84 201 -108 333 -90 160 23 303 158 349 329 19 74 12 200 -16
278 -13 36 -26 67 -29 70 -4 3 -18 21 -31 40 -93 134 -277 203 -437 166 -159
-37 -301 -193 -327 -361 -4 -21 -8 -41 -10 -43 -5 -4 -337 -131 -436 -166 -36
-13 -78 -29 -95 -36 -60 -25 -70 -29 -93 -35 -12 -4 -22 -3 -20 2 3 15 -24 97
-48 146 -24 46 -134 171 -134 152 0 -6 -4 -5 -8 1 -4 6 -25 18 -47 26 -54 22
-56 4 36 308 17 58 32 110 34 115 7 31 19 71 24 80 3 6 6 15 7 20 1 6 12 43
24 84 12 41 23 81 25 90 2 9 9 30 16 46 6 17 13 37 14 45 4 27 47 165 54 172
3 4 15 9 26 11 58 11 116 31 126 43 6 8 17 14 24 14 21 0 105 98 128 148 26
58 31 155 11 208 -8 22 -17 47 -21 57 -3 9 -9 17 -14 17 -5 0 -9 5 -9 12 0 36
-147 135 -212 143 -17 2 -35 8 -41 14 -6 6 -9 147 -9 363 l1 353 38 13 c168
55 271 186 279 352 4 85 -25 185 -69 243 -36 48 -89 97 -104 97 -7 0 -13 4
-13 9 0 8 -103 44 -127 44 -14 0 -14 1 -37 97 -8 36 -36 148 -61 250 -52 208
-58 240 -45 240 33 0 109 110 126 182 13 52 11 185 -3 238 -39 151 -152 232
-259 186z m105 -108 c37 -34 62 -102 66 -179 5 -92 -16 -163 -60 -209 -30 -30
-38 -33 -62 -24 -16 5 -39 29 -57 58 -27 43 -31 58 -33 141 -3 104 12 157 58
206 32 35 57 37 88 7z m-3544 -533 c48 -13 117 -55 154 -92 133 -139 74 -350
-118 -424 -72 -28 -195 -35 -254 -13 -23 8 -48 16 -55 18 -7 1 -18 8 -24 14
-7 7 -17 12 -24 12 -18 0 -94 89 -112 130 -22 52 -19 136 8 193 30 63 111 132
180 152 3 1 12 4 20 8 41 16 166 17 225 2z m1815 -668 c51 -25 102 -93 122
-160 6 -23 11 -74 10 -113 -2 -130 -81 -245 -178 -260 -56 -8 -81 -1 -131 35
-146 105 -135 398 17 493 54 33 100 34 160 5z m1955 -1 c113 -48 184 -194 154
-320 -18 -75 -63 -138 -128 -177 -50 -31 -63 -34 -131 -34 -86 0 -130 18 -186
72 -155 150 -80 430 126 473 46 10 124 3 165 -14z m-3855 -656 c79 -21 188
-81 216 -119 7 -9 23 -29 37 -45 32 -37 59 -122 59 -189 2 -143 -140 -290
-320 -333 -53 -13 -208 -13 -250 -1 -57 16 -70 20 -122 45 -72 35 -145 108
-177 178 -51 113 -26 248 64 336 61 60 65 63 124 91 106 52 256 67 369 37z
m-3415 -815 c29 -6 83 -36 118 -65 10 -8 29 -36 42 -61 27 -53 28 -134 2 -184
-76 -145 -298 -179 -436 -67 -119 97 -98 270 42 350 21 12 49 24 64 26 14 3
27 7 29 9 6 6 103 0 139 -8z m7263 -5 c23 -7 47 -19 53 -27 6 -7 16 -13 21
-13 13 0 57 -49 75 -83 8 -16 16 -51 18 -80 8 -125 -106 -231 -255 -236 -210
-7 -347 179 -248 335 31 49 106 101 157 110 20 3 41 7 46 9 20 6 91 -2 133
-15z m-6104 -275 c52 -8 150 -45 195 -72 38 -24 121 -111 121 -127 0 -8 6 -16
13 -18 8 -3 12 -28 12 -79 0 -90 -18 -132 -82 -194 -59 -57 -218 -135 -244
-119 -5 3 -9 1 -9 -4 0 -4 -15 -8 -32 -7 -18 1 -37 -1 -43 -4 -17 -9 -138 -1
-201 14 -129 30 -252 112 -296 199 -22 42 -32 137 -18 166 4 8 14 28 21 45 33
71 181 174 278 192 14 2 44 8 66 12 48 9 151 7 219 -4z m1499 -1021 c53 -11
131 -53 174 -92 154 -142 153 -349 -2 -495 -61 -58 -184 -102 -275 -99 -60 1
-160 23 -160 33 0 5 -7 9 -16 9 -8 0 -34 13 -57 29 -174 119 -202 345 -61 500
91 102 250 148 397 115z m5757 -20 c255 -114 262 -505 12 -632 -120 -61 -287
-32 -372 64 -28 32 -68 86 -68 94 0 3 -6 19 -13 35 -7 17 -13 71 -13 120 -1
77 3 98 25 145 40 86 129 174 188 185 9 2 16 4 16 5 0 1 13 4 30 6 16 3 31 7
33 8 11 11 112 -8 162 -30z m-1493 -282 c48 -15 89 -48 124 -99 116 -169 69
-434 -93 -518 -179 -93 -364 72 -354 314 6 124 25 171 101 246 68 67 134 84
222 57z m-1453 -392 c60 -23 124 -79 153 -133 71 -133 0 -295 -154 -354 -67
-26 -107 -30 -182 -20 -102 15 -184 71 -227 156 -112 225 149 448 410 351z
m-2106 -964 c184 -30 332 -166 358 -331 10 -61 10 -59 1 -120 -7 -46 -38 -123
-62 -153 -61 -78 -169 -153 -240 -167 -16 -3 -41 -8 -55 -12 -74 -16 -201 -3
-270 28 -80 36 -100 50 -153 104 -46 46 -83 105 -93 144 -2 9 -7 32 -12 52
-16 65 -4 151 32 224 26 53 119 159 130 148 3 -3 6 -2 6 3 0 11 68 47 113 59
4 2 9 4 12 5 3 1 10 4 15 5 6 1 11 3 13 5 1 1 15 4 32 6 16 3 31 6 32 7 4 4
100 -1 141 -7z m3107 4 c0 -1 18 -4 39 -6 92 -11 213 -100 255 -187 61 -127
10 -292 -114 -372 -48 -31 -107 -56 -146 -61 -87 -12 -104 -12 -205 10 -75 16
-184 106 -219 181 -84 180 51 395 270 432 42 7 120 9 120 3z m-994 -1448 c63
-25 149 -136 166 -212 6 -27 6 -124 0 -153 -28 -131 -155 -237 -290 -241 -247
-8 -404 278 -271 491 83 131 241 177 395 115z m-1697 -437 c135 -14 276 -68
390 -149 303 -216 431 -595 320 -947 -54 -172 -136 -291 -282 -410 -263 -213
-634 -245 -937 -81 -75 40 -101 60 -185 142 -167 163 -248 353 -254 595 -1 39
2 93 6 120 5 28 10 59 12 70 5 39 48 157 78 213 54 101 134 198 228 273 51 41
150 102 150 93 0 -4 12 1 26 11 25 16 129 55 142 54 4 -1 9 0 12 1 10 4 47 9
100 16 30 3 56 7 57 8 3 2 72 -2 137 -9z m-1215 -2170 c110 -29 176 -90 160
-149 -9 -33 -58 -88 -71 -80 -4 3 -8 1 -8 -4 0 -5 -26 -18 -57 -28 -82 -26
-219 -24 -293 4 -57 23 -119 72 -121 98 -1 7 -2 20 -3 27 -7 45 72 109 163
133 60 15 172 15 230 -1z m-1153 -618 c64 -40 89 -81 89 -148 0 -45 -5 -62
-27 -91 -96 -126 -335 -104 -393 36 -31 74 7 160 92 207 41 23 59 26 123 24
62 -1 82 -6 116 -28z m-1355 -451 c53 -20 116 -75 125 -111 3 -14 3 -36 0 -49
-12 -48 -91 -107 -164 -124 -47 -10 -196 -5 -227 8 -16 7 -32 14 -35 15 -11 2
-55 29 -65 39 -84 84 -35 185 111 229 62 19 192 15 255 -7z"/>
</g>
</svg>
